# Blender v2.91.2 OBJ File: 'Escenario.blend'
# www.blender.org
mtllib Suelo.mtl
o Suelo_Circle.001
v -3.715842 -0.000003 -18.680906
v -7.288889 -0.000003 -17.597036
v -10.581808 0.000003 -15.836796
v -15.836796 0.000004 -10.581808
v -17.596930 -0.000001 -7.288991
v -18.680803 -0.000001 -3.715947
v -19.046749 0.000006 0.000001
v -21.308437 0.000006 0.000001
v -23.570126 0.000006 0.000001
v -25.831814 0.000006 0.000001
v -28.093500 0.000006 0.000001
v -30.355188 0.000006 0.000001
v -32.616879 0.000006 0.000001
v -34.878567 0.000006 0.000001
v -37.140255 0.000006 0.000001
v -39.403492 -0.001230 0.006793
v -1.857921 -0.000003 -18.863895
v -14.652452 0.000001 -12.025011
v -12.024958 0.000000 -14.652504
v -28.093500 0.000006 5.234652
v -30.355188 0.000006 5.234652
v -32.616879 0.000006 5.234652
v -19.046749 0.000006 5.234651
v -34.878567 0.000006 5.234652
v -37.140255 0.000006 5.234652
v -21.308437 0.000006 5.234651
v -39.401943 0.000006 5.234652
v -25.831814 0.000006 5.234652
v -23.570126 0.000006 5.234651
v 3.715842 -0.000003 -18.680906
v 7.288889 -0.000003 -17.597036
v 10.581808 0.000003 -15.836796
v 15.836796 0.000004 -10.581808
v 17.596930 -0.000001 -7.288991
v 18.680803 -0.000001 -3.715947
v 19.046749 0.000006 0.000001
v 21.308437 0.000006 0.000001
v 23.570126 0.000006 0.000001
v 25.831814 0.000006 0.000001
v 28.093500 0.000006 0.000001
v 30.355188 0.000006 0.000001
v 32.616879 0.000006 0.000001
v 34.878567 0.000006 0.000001
v 37.140255 0.000006 0.000001
v 39.403492 -0.001230 0.006793
v 1.857921 -0.000003 -18.863895
v 14.652452 0.000001 -12.025011
v 12.024958 0.000000 -14.652504
v 28.093500 0.000006 5.234652
v 30.355188 0.000006 5.234652
v 32.616879 0.000006 5.234652
v 19.046749 0.000006 5.234651
v 34.878567 0.000006 5.234652
v 37.140255 0.000006 5.234652
v 21.308437 0.000006 5.234651
v 39.401943 0.000006 5.234652
v 25.831814 0.000006 5.234652
v 23.570126 0.000006 5.234651
v 0.000000 -0.000000 -18.680841
v 0.000000 -0.000003 -17.597038
v 0.000000 0.000003 -15.836796
v 0.000000 0.000001 -10.581867
v 0.000000 0.000002 -7.288935
v 0.000000 -0.000001 -3.715948
v 0.000000 0.000003 -0.000053
v 0.000000 -0.000002 -18.863865
v 0.000000 -0.000001 -12.025040
v 0.000000 0.000000 -14.652504
v 0.000000 0.000004 5.234597
vt 0.500014 0.400629
vt 0.652469 0.400629
vt 0.685781 0.433941
vt 0.500014 0.433941
vt 0.798842 0.586397
vt 0.827516 0.586397
vt 0.827516 0.652763
vt 0.798842 0.652763
vt 0.770168 0.586397
vt 0.770168 0.652763
vt 0.970887 0.586397
vt 0.999581 0.586484
vt 0.999562 0.652764
vt 0.970887 0.652764
vt 0.942213 0.586397
vt 0.942213 0.652764
vt 0.500014 0.586397
vt 0.741493 0.586397
vt 0.741493 0.652763
vt 0.500014 0.652763
vt 0.913539 0.586397
vt 0.913539 0.652764
vt 0.884865 0.586397
vt 0.884864 0.652764
vt 0.856190 0.586397
vt 0.856190 0.652763
vt 0.700797 0.452239
vt 0.500014 0.452238
vt 0.523569 0.347236
vt 0.547124 0.349556
vt 0.500014 0.349557
vt 0.500014 0.347237
vt 0.500014 0.539286
vt 0.736854 0.539286
vt 0.500014 0.493987
vt 0.723112 0.493986
vt 0.500014 0.385615
vt 0.634173 0.385615
vt 0.500014 0.363298
vt 0.592424 0.363298
vt 0.314247 0.433941
vt 0.347559 0.400629
vt 0.201186 0.586398
vt 0.201186 0.652764
vt 0.172512 0.652764
vt 0.172512 0.586398
vt 0.229860 0.586398
vt 0.229860 0.652764
vt 0.029141 0.586398
vt 0.029141 0.652764
vt 0.000467 0.652764
vt 0.000447 0.586484
vt 0.057815 0.586398
vt 0.057815 0.652764
vt 0.258535 0.652764
vt 0.258535 0.586398
vt 0.086490 0.586398
vt 0.086489 0.652764
vt 0.115164 0.586398
vt 0.115164 0.652764
vt 0.143838 0.586398
vt 0.143838 0.652764
vt 0.299231 0.452239
vt 0.476459 0.347236
vt 0.452904 0.349556
vt 0.263174 0.539286
vt 0.276916 0.493986
vt 0.365855 0.385615
vt 0.407604 0.363298
vn -0.0000 1.0000 0.0000
vn -0.0001 1.0000 -0.0001
vn -0.0008 1.0000 -0.0001
vn 0.0001 1.0000 -0.0001
vn 0.0008 1.0000 -0.0001
usemtl None
s 1
f 68/1/1 19/2/1 18/3/1 67/4/1
f 9/5/1 10/6/1 28/7/1 29/8/1
f 8/9/1 9/5/1 29/8/1 26/10/1
f 15/11/2 16/12/3 27/13/3 25/14/2
f 14/15/1 15/11/2 25/14/2 24/16/1
f 65/17/1 7/18/1 23/19/1 69/20/1
f 7/18/1 8/9/1 26/10/1 23/19/1
f 13/21/1 14/15/1 24/16/1 22/22/1
f 12/23/1 13/21/1 22/22/1 21/24/1
f 11/25/1 12/23/1 21/24/1 20/26/1
f 10/6/1 11/25/1 20/26/1 28/7/1
f 4/27/1 62/28/1 67/4/1 18/3/1
f 17/29/1 1/30/1 59/31/1 66/32/1
f 7/18/1 65/17/1 64/33/1 6/34/1
f 6/34/1 64/33/1 63/35/1 5/36/1
f 5/36/1 63/35/1 62/28/1 4/27/1
f 19/2/1 68/1/1 61/37/1 3/38/1
f 3/38/1 61/37/1 60/39/1 2/40/1
f 2/40/1 60/39/1 59/31/1 1/30/1
f 68/1/1 67/4/1 47/41/1 48/42/1
f 38/43/1 58/44/1 57/45/1 39/46/1
f 37/47/1 55/48/1 58/44/1 38/43/1
f 44/49/4 54/50/4 56/51/5 45/52/5
f 43/53/1 53/54/1 54/50/4 44/49/4
f 65/17/1 69/20/1 52/55/1 36/56/1
f 36/56/1 52/55/1 55/48/1 37/47/1
f 42/57/1 51/58/1 53/54/1 43/53/1
f 41/59/1 50/60/1 51/58/1 42/57/1
f 40/61/1 49/62/1 50/60/1 41/59/1
f 39/46/1 57/45/1 49/62/1 40/61/1
f 33/63/1 47/41/1 67/4/1 62/28/1
f 46/64/1 66/32/1 59/31/1 30/65/1
f 36/56/1 35/66/1 64/33/1 65/17/1
f 35/66/1 34/67/1 63/35/1 64/33/1
f 34/67/1 33/63/1 62/28/1 63/35/1
f 48/42/1 32/68/1 61/37/1 68/1/1
f 32/68/1 31/69/1 60/39/1 61/37/1
f 31/69/1 30/65/1 59/31/1 60/39/1
